<svg width="106" height="67" viewBox="0 0 106 70" fill="none" xmlns="http://www.w3.org/2000/svg">
<path d="M66.5 0L100.708 69.75H32.292L66.5 0Z" fill="white" fill-opacity="0.7"/>
<path d="M40 0L74.641 69.75H5.35898L40 0Z" fill="white" fill-opacity="0.7"/>
<path d="M57.848 53.424L51.776 68.688C51.744 68.784 51.688 68.864 51.608 68.928C51.528 68.976 51.44 69 51.344 69C51.184 69 51.064 68.96 50.984 68.88C50.904 68.8 50.856 68.704 50.84 68.592C50.824 68.528 50.832 68.448 50.864 68.352L57.32 52.464C57.368 52.336 57.424 52.256 57.488 52.224C57.568 52.176 57.664 52.152 57.776 52.152C57.904 52.152 58.008 52.184 58.088 52.248C58.168 52.296 58.224 52.368 58.256 52.464L64.712 68.352C64.728 68.4 64.736 68.464 64.736 68.544C64.736 68.688 64.688 68.8 64.592 68.88C64.496 68.96 64.376 69 64.232 69C64.12 69 64.016 68.976 63.92 68.928C63.84 68.864 63.784 68.784 63.752 68.688L57.488 53.232L57.848 53.424ZM53.408 63.792L53.744 62.832H61.52L61.76 63.792H53.408ZM73.4339 53.424L67.3619 68.688C67.3299 68.784 67.2739 68.864 67.1939 68.928C67.1139 68.976 67.0259 69 66.9299 69C66.7699 69 66.6499 68.96 66.5699 68.88C66.4899 68.8 66.4419 68.704 66.4259 68.592C66.4099 68.528 66.4179 68.448 66.4499 68.352L72.9059 52.464C72.9539 52.336 73.0099 52.256 73.0739 52.224C73.1539 52.176 73.2499 52.152 73.3619 52.152C73.4899 52.152 73.5939 52.184 73.6739 52.248C73.7539 52.296 73.8099 52.368 73.8419 52.464L80.2979 68.352C80.3139 68.4 80.3219 68.464 80.3219 68.544C80.3219 68.688 80.2739 68.8 80.1779 68.88C80.0819 68.96 79.9619 69 79.8179 69C79.7059 69 79.6019 68.976 79.5059 68.928C79.4259 68.864 79.3699 68.784 79.3379 68.688L73.0739 53.232L73.4339 53.424ZM68.9939 63.792L69.3299 62.832H77.1059L77.3459 63.792H68.9939ZM87.9639 69.24C86.7159 69.256 85.6439 69.048 84.7479 68.616C83.8519 68.184 82.9879 67.552 82.1559 66.72C82.1239 66.688 82.0919 66.648 82.0599 66.6C82.0279 66.536 82.0119 66.456 82.0119 66.36C82.0119 66.232 82.0679 66.112 82.1799 66C82.2919 65.872 82.4119 65.808 82.5399 65.808C82.6839 65.808 82.8199 65.88 82.9479 66.024C83.5879 66.76 84.3319 67.32 85.1799 67.704C86.0439 68.088 86.9399 68.28 87.8679 68.28C88.6839 68.28 89.4119 68.152 90.0519 67.896C90.6919 67.624 91.1959 67.248 91.5639 66.768C91.9319 66.272 92.1159 65.696 92.1159 65.04C92.0999 64.224 91.8759 63.568 91.4439 63.072C91.0119 62.576 90.4519 62.168 89.7639 61.848C89.0919 61.528 88.3799 61.232 87.6279 60.96C87.0359 60.736 86.4519 60.504 85.8759 60.264C85.2999 60.024 84.7799 59.736 84.3159 59.4C83.8519 59.048 83.4839 58.616 83.2119 58.104C82.9399 57.576 82.8039 56.928 82.8039 56.16C82.8039 55.376 83.0119 54.672 83.4279 54.048C83.8599 53.408 84.4679 52.904 85.2519 52.536C86.0519 52.152 86.9959 51.96 88.0839 51.96C88.9959 51.96 89.8839 52.128 90.7479 52.464C91.6119 52.784 92.2919 53.272 92.7879 53.928C92.9479 54.152 93.0279 54.32 93.0279 54.432C93.0279 54.544 92.9639 54.656 92.8359 54.768C92.7239 54.88 92.5959 54.936 92.4519 54.936C92.3239 54.936 92.2199 54.888 92.1399 54.792C91.8519 54.408 91.4999 54.08 91.0839 53.808C90.6839 53.52 90.2279 53.304 89.7159 53.16C89.2039 53 88.6599 52.92 88.0839 52.92C87.2999 52.92 86.5879 53.048 85.9479 53.304C85.3079 53.56 84.7959 53.928 84.4119 54.408C84.0279 54.872 83.8359 55.448 83.8359 56.136C83.8359 56.872 84.0439 57.48 84.4599 57.96C84.8919 58.424 85.4359 58.816 86.0919 59.136C86.7479 59.44 87.4199 59.72 88.1079 59.976C88.7159 60.184 89.3159 60.416 89.9079 60.672C90.5159 60.912 91.0599 61.216 91.5399 61.584C92.0359 61.952 92.4279 62.416 92.7159 62.976C93.0039 63.536 93.1479 64.24 93.1479 65.088C93.1479 65.824 92.9319 66.504 92.4999 67.128C92.0839 67.752 91.4919 68.256 90.7239 68.64C89.9559 69.024 89.0359 69.224 87.9639 69.24Z" fill="#86A9C9"/>
</svg>
