<svg width="109" height="93" viewBox="0 0 109 93" fill="none" xmlns="http://www.w3.org/2000/svg">
<path d="M58.5 0L88.3779 69.75H28.6221L58.5 0Z" fill="white" fill-opacity="0.8"/>
<path d="M35 0L65.3109 69.75H4.68911L35 0Z" fill="white" fill-opacity="0.8"/>
<path d="M66.176 69.56C66.224 69.752 66.248 69.896 66.248 69.992C66.248 70.304 66.14 70.556 65.924 70.748C65.708 70.94 65.456 71.036 65.168 71.036C64.928 71.036 64.712 70.976 64.52 70.856C64.352 70.712 64.22 70.532 64.124 70.316L61.424 63.728H49.724L47.06 70.316C46.868 70.796 46.544 71.036 46.088 71.036C45.752 71.036 45.5 70.952 45.332 70.784C45.164 70.616 45.068 70.388 45.044 70.1V69.992C45.044 69.848 45.056 69.74 45.08 69.668L54.584 46.412C54.776 45.932 55.136 45.692 55.664 45.692C55.904 45.692 56.108 45.764 56.276 45.908C56.468 46.028 56.612 46.196 56.708 46.412L66.176 69.56ZM60.56 61.604L55.52 49.292L50.552 61.604H60.56ZM89.4846 69.56C89.5326 69.752 89.5566 69.896 89.5566 69.992C89.5566 70.304 89.4486 70.556 89.2326 70.748C89.0166 70.94 88.7646 71.036 88.4766 71.036C88.2366 71.036 88.0206 70.976 87.8286 70.856C87.6606 70.712 87.5286 70.532 87.4326 70.316L84.7326 63.728H73.0326L70.3686 70.316C70.1766 70.796 69.8526 71.036 69.3966 71.036C69.0606 71.036 68.8086 70.952 68.6406 70.784C68.4726 70.616 68.3766 70.388 68.3526 70.1V69.992C68.3526 69.848 68.3646 69.74 68.3886 69.668L77.8926 46.412C78.0846 45.932 78.4446 45.692 78.9726 45.692C79.2126 45.692 79.4166 45.764 79.5846 45.908C79.7766 46.028 79.9206 46.196 80.0166 46.412L89.4846 69.56ZM83.8686 61.604L78.8286 49.292L73.8606 61.604H83.8686Z" fill="#FDD835"/>
<path d="M98.6452 71.36C96.9172 71.36 95.3812 71.072 94.0372 70.496C92.7172 69.92 91.4332 69.02 90.1852 67.796C89.8972 67.556 89.7532 67.268 89.7532 66.932C89.7532 66.644 89.8612 66.38 90.0772 66.14C90.3172 65.9 90.5812 65.78 90.8692 65.78C91.1572 65.78 91.4212 65.9 91.6612 66.14C93.5332 68.204 95.8732 69.236 98.6812 69.236C100.409 69.236 101.837 68.828 102.965 68.012C104.117 67.196 104.693 66.128 104.693 64.808C104.693 63.776 104.405 62.924 103.829 62.252C103.277 61.556 102.545 60.992 101.633 60.56C100.721 60.128 99.5572 59.684 98.1412 59.228C96.6052 58.772 95.3092 58.268 94.2532 57.716C93.2212 57.164 92.3812 56.432 91.7332 55.52C91.0852 54.584 90.7612 53.408 90.7612 51.992C90.7612 50.72 91.0972 49.592 91.7692 48.608C92.4652 47.624 93.4252 46.856 94.6492 46.304C95.8972 45.728 97.3252 45.44 98.9332 45.44C100.397 45.44 101.765 45.692 103.037 46.196C104.333 46.676 105.365 47.372 106.133 48.284C106.493 48.692 106.673 49.04 106.673 49.328C106.673 49.592 106.553 49.844 106.313 50.084C106.073 50.3 105.809 50.408 105.521 50.408C105.281 50.408 105.077 50.324 104.909 50.156C104.261 49.388 103.397 48.764 102.317 48.284C101.237 47.804 100.109 47.564 98.9332 47.564C97.1812 47.564 95.7532 47.96 94.6492 48.752C93.5452 49.52 92.9932 50.576 92.9932 51.92C92.9932 53.312 93.5212 54.38 94.5772 55.124C95.6332 55.868 97.1452 56.552 99.1132 57.176C100.817 57.68 102.209 58.196 103.289 58.724C104.369 59.252 105.245 60.008 105.917 60.992C106.613 61.952 106.961 63.224 106.961 64.808C106.961 66.032 106.601 67.148 105.881 68.156C105.185 69.14 104.201 69.92 102.929 70.496C101.681 71.072 100.253 71.36 98.6452 71.36Z" fill="white"/>
</svg>
