<?xml version="1.0" encoding="UTF-8" standalone="no"?>
<svg
   xmlns:dc="http://purl.org/dc/elements/1.1/"
   xmlns:cc="http://creativecommons.org/ns#"
   xmlns:rdf="http://www.w3.org/1999/02/22-rdf-syntax-ns#"
   xmlns:svg="http://www.w3.org/2000/svg"
   xmlns="http://www.w3.org/2000/svg"
   xmlns:sodipodi="http://sodipodi.sourceforge.net/DTD/sodipodi-0.dtd"
   xmlns:inkscape="http://www.inkscape.org/namespaces/inkscape"
   width="74"
   height="70"
   viewBox="0 0 74 70"
   fill="none"
   version="1.1"
   id="svg122"
   sodipodi:docname="logo_white.svg"
   inkscape:export-filename="/tmp/argus-logo.png"
   inkscape:export-xdpi="278.78"
   inkscape:export-ydpi="278.78"
   inkscape:version="1.0beta1 (32d4812, 2019-09-19)">
  <sodipodi:namedview
     pagecolor="#005775"
     bordercolor="#666666"
     inkscape:document-rotation="0"
     borderopacity="1"
     objecttolerance="10"
     gridtolerance="10"
     guidetolerance="10"
     inkscape:pageopacity="0"
     inkscape:pageshadow="2"
     inkscape:window-width="1720"
     inkscape:window-height="1387"
     id="namedview840"
     showgrid="false"
     inkscape:zoom="3.3189436"
     inkscape:cx="105.77434"
     inkscape:cy="6.6050255"
     inkscape:window-x="2560"
     inkscape:window-y="25"
     inkscape:window-maximized="0"
     inkscape:current-layer="svg122" />
  <metadata
     id="metadata128">
    <rdf:RDF>
      <cc:Work
         rdf:about="">
        <dc:format>image/svg+xml</dc:format>
        <dc:type
           rdf:resource="http://purl.org/dc/dcmitype/StillImage" />
        <dc:title></dc:title>
      </cc:Work>
    </rdf:RDF>
  </metadata>
  <defs
     id="defs126" />
  <path
     style="stroke:#ffffff;stroke-opacity:1"
     d="M22.4953 47.7931L45.3656 3.0137L68.2359 47.7931H22.4953Z"
     stroke="#006D91"
     stroke-width="2.74152"
     id="path116" />
  <path
     style="stroke:#ffffff;stroke-opacity:1"
     d="M2.39699 47.7931L25.6164 2.9796L48.8358 47.7931H2.39699Z"
     stroke="#006D91"
     stroke-width="2.74152"
     id="path118" />
  <g
     style="font-style:normal;font-variant:normal;font-weight:bold;font-stretch:normal;font-size:24px;line-height:1.25;font-family:'DejaVu Sans Mono';-inkscape-font-specification:'DejaVu Sans Mono, Bold';font-variant-ligatures:normal;font-variant-caps:normal;font-variant-numeric:normal;font-variant-east-asian:normal;fill:#ffffff;fill-opacity:1;stroke:none"
     id="text132"
     aria-label="ARGUS">
    <path
       id="path841"
       style="font-style:normal;font-variant:normal;font-weight:bold;font-stretch:normal;font-size:24px;font-family:'DejaVu Sans Mono';-inkscape-font-specification:'DejaVu Sans Mono, Bold';font-variant-ligatures:normal;font-variant-caps:normal;font-variant-numeric:normal;font-variant-east-asian:normal;fill:#ffffff;fill-opacity:1"
       d="M 7.2594067,54.162384 5.6305004,61.32254 H 8.9000317 Z M 5.1500317,50.998322 H 9.3805004 L 14.103157,68.494415 H 10.646125 L 9.5680004,64.170197 H 4.9390942 L 3.8844067,68.494415 H 0.42737545 Z" />
    <path
       id="path843"
       style="font-style:normal;font-variant:normal;font-weight:bold;font-stretch:normal;font-size:24px;font-family:'DejaVu Sans Mono';-inkscape-font-specification:'DejaVu Sans Mono, Bold';font-variant-ligatures:normal;font-variant-caps:normal;font-variant-numeric:normal;font-variant-east-asian:normal;fill:#ffffff;fill-opacity:1"
       d="m 23.935188,60.232697 q 0.515625,0.105468 0.890625,0.492187 0.386719,0.375 0.9375,1.476563 l 3.164062,6.292968 H 25.1305 l -2.109375,-4.417968 q -0.09375,-0.1875 -0.246093,-0.515625 -0.925782,-1.980469 -2.179688,-1.980469 h -1.101562 v 6.914062 H 16.03675 V 50.998322 h 4.992188 q 3.375,0 4.839844,1.195312 1.476562,1.195313 1.476562,3.890625 0,1.804688 -0.878906,2.871094 -0.878906,1.066406 -2.53125,1.277344 z m -4.441406,-6.328125 v 4.769531 h 1.628906 q 1.417969,0 2.027344,-0.550781 0.621093,-0.5625 0.621093,-1.839844 0,-1.277344 -0.609375,-1.828125 -0.609375,-0.550781 -2.039062,-0.550781 z" />
    <path
       id="path845"
       style="font-style:normal;font-variant:normal;font-weight:bold;font-stretch:normal;font-size:24px;font-family:'DejaVu Sans Mono';-inkscape-font-specification:'DejaVu Sans Mono, Bold';font-variant-ligatures:normal;font-variant-caps:normal;font-variant-numeric:normal;font-variant-east-asian:normal;fill:#ffffff;fill-opacity:1"
       d="m 39.134407,65.330353 v -3.339844 h -2.367188 v -2.90625 h 5.390625 v 8.015625 q -0.996094,0.855469 -2.203125,1.300781 -1.195312,0.433594 -2.566406,0.433594 -3.398438,0 -5.25,-2.355469 -1.851563,-2.367187 -1.851563,-6.714843 0,-4.417969 1.863282,-6.75 1.875,-2.332032 5.402343,-2.332032 1.054688,0 2.074219,0.304688 1.019531,0.292969 1.910156,0.855469 v 3.832031 q -0.726562,-0.9375 -1.675781,-1.40625 -0.9375,-0.480469 -2.0625,-0.480469 -1.96875,0 -2.941406,1.488281 -0.972656,1.476563 -0.972656,4.488282 0,2.917968 0.9375,4.441406 0.9375,1.523437 2.730468,1.523437 0.539063,0 0.9375,-0.09375 0.398438,-0.105468 0.644532,-0.304687 z" />
    <path
       id="path847"
       style="font-style:normal;font-variant:normal;font-weight:bold;font-stretch:normal;font-size:24px;font-family:'DejaVu Sans Mono';-inkscape-font-specification:'DejaVu Sans Mono, Bold';font-variant-ligatures:normal;font-variant-caps:normal;font-variant-numeric:normal;font-variant-east-asian:normal;fill:#ffffff;fill-opacity:1"
       d="M 44.595344,62.037384 V 50.998322 h 3.457031 v 11.90625 q 0,1.3125 0.667969,2.0625 0.667969,0.738281 1.851563,0.738281 1.183593,0 1.851562,-0.738281 0.667969,-0.75 0.667969,-2.0625 v -11.90625 h 3.457031 v 11.039062 q 0,3.5625 -1.417969,5.179688 -1.417968,1.617187 -4.558593,1.617187 -3.128907,0 -4.558594,-1.617187 -1.417969,-1.617188 -1.417969,-5.179688 z" />
    <path
       id="path849"
       style="font-style:normal;font-variant:normal;font-weight:bold;font-stretch:normal;font-size:24px;font-family:'DejaVu Sans Mono';-inkscape-font-specification:'DejaVu Sans Mono, Bold';font-variant-ligatures:normal;font-variant-caps:normal;font-variant-numeric:normal;font-variant-east-asian:normal;fill:#ffffff;fill-opacity:1"
       d="m 63.767219,60.818634 q -2.613281,-0.996094 -3.539062,-2.085937 -0.925782,-1.101563 -0.925782,-2.953125 0,-2.378907 1.523438,-3.738282 1.523437,-1.359375 4.183594,-1.359375 1.207031,0 2.414062,0.28125 1.207031,0.269532 2.390625,0.808594 v 3.375 q -1.113281,-0.785156 -2.261719,-1.195312 -1.148437,-0.410157 -2.273437,-0.410157 -1.253906,0 -1.921875,0.503907 -0.667969,0.503906 -0.667969,1.441406 0,0.726562 0.480469,1.207031 0.492187,0.46875 2.039062,1.042969 l 1.488282,0.5625 q 2.109375,0.773437 3.105468,2.050781 0.996094,1.277344 0.996094,3.222656 0,2.648438 -1.570312,3.960938 -1.558594,1.300781 -4.722657,1.300781 -1.300781,0 -2.613281,-0.316406 -1.300781,-0.304688 -2.519531,-0.914063 v -3.574218 q 1.382812,0.984375 2.671875,1.464843 1.300781,0.480469 2.566406,0.480469 1.277344,0 1.980469,-0.574219 0.703125,-0.585937 0.703125,-1.628906 0,-0.785156 -0.46875,-1.371094 -0.46875,-0.597656 -1.359375,-0.9375 z" />
  </g>
</svg>
