<svg xmlns="http://www.w3.org/2000/svg" id="uuid-081bd064-f7a4-4701-a438-ece56dfc20f3" viewBox="0 0 296.96 208.42"><defs><style>.uuid-9c17ef5b-ea7f-4822-888b-1aa3cb48c6d5{fill:#00668a}</style></defs><g id="uuid-a8323419-a906-4524-b7a3-4c87a5d06302"><g id="uuid-a5c0b25e-424b-4112-b6d7-882d6e5902f0"><text style="font-family:Futura-Bold,Futura;font-size:75px;fill:#00668a" transform="translate(0 182.62)"><tspan x="0" y="0">A</tspan><tspan x="60.15" y="0" style="letter-spacing:0">R</tspan><tspan x="112.57" y="0">GUS</tspan></text><g id="uuid-451afd43-a51d-42bd-82cc-033fbd978d12"><path d="M20.84 87.81c2.52-11.78 8.06-22.65 14.74-32.58 17.53-25.96 45.3-44.52 75.93-51.6 18.13-4.4 37.15-4.29 55.61-2.35 5.99.52 12.12 1.72 18.01 2.79 5.8 1.29 12.14 2.91 17.79 4.82 16.25 5.15 32.08 13.28 45.28 24.12 5 4.13 9.67 8.69 13.74 13.76 2.35 2.91 18.85 25.45 21.45 28.9l-20.72-5.13c-.13-.03-.29-.25-.64-.12l-.25.03-.13.01-.16.07c-.84.33-1.5.81-2.25 1.36-3.39 2.75-6.41 5.85-10.27 8.87-6.06 4.84-13.4 8.55-20.97 9.99l-1.36-2.22c5.72-3.67 10.76-8.24 14.84-13.67 4.44-5.48 7.24-12.52 13.22-16.76l-.42 2.96c-1.74-1.85-3.89-3.63-5.91-5.26-10.6-8.29-23.18-14.25-35.8-18.83-4.51-1.51-11.06-3.58-15.63-4.64l-3.95-1.02-4.01-.79c-6.21-1.38-13.86-2.38-20.18-3.2-6.26-.49-14.16-1.22-20.42-1.23-38.44-2.35-76.01 12.11-103.96 38.43-6 5.54-11.61 11.55-16.63 18.02-1.66 2.15-3.3 4.38-4.73 6.61l-2.24-1.33Z" class="uuid-9c17ef5b-ea7f-4822-888b-1aa3cb48c6d5"/><path d="M145.48 29.37c21.13 0 38.26 17.13 38.26 38.26s-17.13 38.26-38.26 38.26-38.26-17.13-38.26-38.26 17.13-38.26 38.26-38.26" class="uuid-9c17ef5b-ea7f-4822-888b-1aa3cb48c6d5"/></g></g></g></svg>