<svg width="80" height="57" viewBox="0 0 80 57" fill="none" xmlns="http://www.w3.org/2000/svg">
<path d="M24.9727 56.25L51.5 3.23474L78.0273 56.25H24.9727Z" stroke="white" stroke-width="2"/>
<path d="M2.97274 56.25L29.5 3.23474L56.0273 56.25H2.97274Z" stroke="white" stroke-width="2"/>
<path d="M45.9092 57H44.4443L42.5547 49.2363H37.3545L35.4941 57H34L39.1562 35.584H40.6357L45.9092 57ZM42.2178 47.7861L40.3281 39.8027C40.1133 38.7969 39.9619 37.9473 39.874 37.2539C39.7861 38.1426 39.6494 38.9922 39.4639 39.8027L37.6328 47.7861H42.2178ZM58.733 57H57.2682L55.3785 49.2363H50.1783L48.318 57H46.8238L51.9801 35.584H53.4596L58.733 57ZM55.0416 47.7861L53.152 39.8027C52.9371 38.7969 52.7857 37.9473 52.6979 37.2539C52.61 38.1426 52.4732 38.9922 52.2877 39.8027L50.4566 47.7861H55.0416ZM65.0236 55.916C66.1174 55.916 67.0158 55.501 67.7189 54.6709C68.4221 53.8408 68.7736 52.8105 68.7736 51.5801C68.7736 50.3496 68.5197 49.3877 68.0119 48.6943C67.5139 47.9912 66.5666 47.2979 65.1701 46.6143C64.0568 46.0479 63.2268 45.5059 62.6799 44.9883C62.1428 44.4707 61.7424 43.8701 61.4787 43.1865C61.215 42.4932 61.0832 41.6582 61.0832 40.6816C61.0832 40.623 61.0832 40.5645 61.0832 40.5059C61.0832 39.0312 61.5568 37.791 62.5041 36.7852C63.4611 35.7793 64.6232 35.2764 65.9904 35.2764C66.01 35.2764 66.0344 35.2764 66.0637 35.2764C67.5676 35.2764 68.8566 35.5693 69.9309 36.1553L69.3742 37.5322C68.2902 36.9756 67.2014 36.6973 66.1076 36.6973C65.0236 36.6973 64.1496 37.0586 63.4855 37.7812C62.8312 38.4941 62.5041 39.4512 62.5041 40.6523C62.5041 41.8438 62.7434 42.7666 63.2219 43.4209C63.7102 44.0752 64.6477 44.7637 66.0344 45.4863C67.4797 46.1895 68.5344 47.0146 69.1984 47.9619C69.8723 48.8994 70.2092 50.042 70.2092 51.3896C70.2092 53.1475 69.7209 54.5732 68.7443 55.667C67.758 56.751 66.5178 57.293 65.0236 57.293C63.3146 57.293 61.9426 57.0439 60.9074 56.5459V54.9932C61.4543 55.2861 62.0988 55.5156 62.841 55.6816C63.5832 55.8379 64.3107 55.916 65.0236 55.916Z" fill="#464646"/>
</svg>
