<?xml version="1.0" encoding="UTF-8"?><svg id="uuid-452f539a-d022-4539-9c95-8830631991b6" xmlns="http://www.w3.org/2000/svg" viewBox="0 0 363.66 284.74"><defs><style>.uuid-0136277c-f39f-4ea5-952e-8a400fd91c2f,.uuid-aabac377-fb9e-490a-9532-843f36f8ac37{fill:#00668a;}.uuid-54d6eaee-a6cd-468f-a947-157c0bc6ead3{fill:#fff;stroke:#00668a;stroke-miterlimit:10;stroke-width:4px;}.uuid-ad518694-5e7a-405d-917d-8fc8e4347f86{letter-spacing:0em;}.uuid-aabac377-fb9e-490a-9532-843f36f8ac37{font-family:Futura-Bold, Futura;font-size:75px;}</style></defs><g id="uuid-9b83d243-42cc-4e77-89e8-d832c3e739ad"><g id="uuid-20c7a9c0-07aa-4a0d-96d8-0813c9c4efb6"><path id="uuid-24a82c29-a38c-4bfc-9b32-e281feab4299" class="uuid-54d6eaee-a6cd-468f-a947-157c0bc6ead3" d="M361.66,282.24s-92.28-20.81-179.83-20.81c-77.15,0-179.83,20.81-179.83,20.81V2.88C55.01,14.34,123.06,20.51,181.83,20.51s119.81-4.9,179.83-18.02V282.24Z"/><text class="uuid-aabac377-fb9e-490a-9532-843f36f8ac37" transform="translate(36.34 235.35)"><tspan x="0" y="0">A</tspan><tspan class="uuid-ad518694-5e7a-405d-917d-8fc8e4347f86" x="60.15" y="0">R</tspan><tspan x="112.57" y="0">GUS</tspan></text><g id="uuid-ab43eb93-cac4-4fca-a852-986cd68d594a"><path class="uuid-0136277c-f39f-4ea5-952e-8a400fd91c2f" d="M57.18,140.53c2.52-11.78,8.06-22.65,14.74-32.58,17.53-25.96,45.3-44.51,75.93-51.6,18.14-4.4,37.15-4.29,55.62-2.35,5.99,.52,12.12,1.72,18.01,2.79,5.8,1.29,12.14,2.91,17.79,4.82,16.25,5.15,32.08,13.28,45.28,24.12,5,4.13,9.67,8.69,13.74,13.76,2.35,2.91,18.85,25.45,21.45,28.9,0,0-20.72-5.13-20.72-5.13-.13-.03-.29-.25-.64-.12l-.25,.03s-.13,.01-.13,.01c0,0-.16,.07-.16,.07-.84,.33-1.5,.81-2.25,1.36-3.39,2.74-6.41,5.85-10.27,8.87-6.06,4.84-13.4,8.55-20.97,9.99,0,0-1.36-2.22-1.36-2.22,5.72-3.67,10.76-8.24,14.84-13.67,4.44-5.48,7.24-12.52,13.22-16.76,0,0-.42,2.96-.42,2.96-1.74-1.85-3.89-3.63-5.91-5.26-10.6-8.29-23.18-14.25-35.8-18.83-4.51-1.51-11.06-3.58-15.63-4.64,0,0-3.95-1.02-3.95-1.02l-4.01-.79c-6.21-1.38-13.86-2.38-20.18-3.2-6.26-.49-14.16-1.22-20.42-1.23-38.44-2.35-76.01,12.11-103.96,38.43-6,5.54-11.61,11.55-16.63,18.02-1.66,2.15-3.3,4.38-4.73,6.61l-2.24-1.33h0Z"/><path class="uuid-0136277c-f39f-4ea5-952e-8a400fd91c2f" d="M181.83,82.1c21.13,0,38.26,17.13,38.26,38.26s-17.13,38.26-38.26,38.26-38.26-17.13-38.26-38.26,17.13-38.26,38.26-38.26"/></g></g></g></svg>