<?xml version="1.0" encoding="UTF-8"?><svg id="uuid-9fffca87-1040-4a16-98eb-31c1ae266472" xmlns="http://www.w3.org/2000/svg" viewBox="0 0 359.66 279.76"><defs><style>.uuid-26caa2b9-6ea9-462a-bfae-311ee7da8a51{fill:#00668a;}.uuid-2c442167-92d0-4057-a34b-f7f152c82221,.uuid-e28f3b4b-6806-4a65-9806-a4b2826c8fb3{fill:#fff;}.uuid-656d342e-c4c8-456e-8e5d-13e5812fcb65{letter-spacing:0em;}.uuid-e28f3b4b-6806-4a65-9806-a4b2826c8fb3{font-family:Futura-Bold, Futura;font-size:75px;}</style></defs><g id="uuid-3b24017c-f1d2-44a5-a5cd-1e924c84079d"><g id="uuid-4f00ec98-bc65-4abd-b549-068fa2ccb1b1"><path id="uuid-cefdf6b3-cb14-4176-b549-31df15414a8b" class="uuid-26caa2b9-6ea9-462a-bfae-311ee7da8a51" d="M359.66,279.76s-92.28-20.81-179.83-20.81c-77.15,0-179.83,20.81-179.83,20.81V.4C53.01,11.85,121.06,18.02,179.83,18.02S299.64,13.12,359.66,0V279.76Z"/><text class="uuid-e28f3b4b-6806-4a65-9806-a4b2826c8fb3" transform="translate(35.81 227.73)"><tspan x="0" y="0">A</tspan><tspan class="uuid-656d342e-c4c8-456e-8e5d-13e5812fcb65" x="60.15" y="0">R</tspan><tspan x="112.57" y="0">GUS</tspan></text><g id="uuid-5697901e-3437-499f-bb5e-bf338311221b"><path class="uuid-2c442167-92d0-4057-a34b-f7f152c82221" d="M56.8,133.84c2.64-11.75,8.2-22.49,14.93-32.36,17.47-25.63,45.42-44.08,75.84-51.07,12.27-2.76,24.86-3.78,37.41-3.4,15.07,.44,30.2,2.42,44.74,6.49,23.75,6.52,46.88,18.62,63.25,37.5,4.5,5.29,12.23,17.26,16.35,23.01,0,0-12.3,.07-12.3,.07-2.32,.3-3.74,2.2-5.65,3.91-2.4,2.34-5.04,5.12-7.9,7.65-5.66,4.99-12.4,8.97-19.57,11.07,0,0-1.3-2.12-1.3-2.12,5.76-3.61,10.83-8.2,14.95-13.62,4.45-5.44,7.26-12.46,13.22-16.66,0,0-.37,2.59-.37,2.59-21.39-20.18-52.96-29.46-81.58-33.21-13.39-1.62-27.33-2.29-40.82-1.68-38.24,1.92-74.18,21.49-99.12,50.17-3.57,4.1-7.01,8.43-9.93,12.94,0,0-2.14-1.27-2.14-1.27h0Z"/><path class="uuid-2c442167-92d0-4057-a34b-f7f152c82221" d="M181.31,75.55c21.13,0,38.26,17.13,38.26,38.26s-17.13,38.26-38.26,38.26-38.26-17.13-38.26-38.26,17.13-38.26,38.26-38.26"/></g></g></g></svg>