<?xml version="1.0" encoding="UTF-8" standalone="no"?>
<svg
   id="uuid-081bd064-f7a4-4701-a438-ece56dfc20f3"
   viewBox="0 0 296.96 208.42"
   version="1.1"
   sodipodi:docname="logo_dark.svg"
   inkscape:version="1.2.2 (1:1.2.2+202212051550+b0a8486541)"
   xmlns:inkscape="http://www.inkscape.org/namespaces/inkscape"
   xmlns:sodipodi="http://sodipodi.sourceforge.net/DTD/sodipodi-0.dtd"
   xmlns="http://www.w3.org/2000/svg"
   xmlns:svg="http://www.w3.org/2000/svg">
  <sodipodi:namedview
     id="namedview401"
     pagecolor="#ffffff"
     bordercolor="#000000"
     borderopacity="0.25"
     inkscape:showpageshadow="2"
     inkscape:pageopacity="0.0"
     inkscape:pagecheckerboard="0"
     inkscape:deskcolor="#d1d1d1"
     showgrid="false"
     showguides="false"
     inkscape:zoom="5.3881585"
     inkscape:cx="111.72648"
     inkscape:cy="104.21"
     inkscape:window-width="2560"
     inkscape:window-height="1326"
     inkscape:window-x="1920"
     inkscape:window-y="27"
     inkscape:window-maximized="1"
     inkscape:current-layer="text391" />
  <defs
     id="defs383">
    <style
       id="style381">.uuid-9c17ef5b-ea7f-4822-888b-1aa3cb48c6d5,.uuid-b11339f5-b3c4-4df5-98f2-8751bc0b936e{fill:#00668a;}.uuid-fb25c1fa-e217-44d9-93dd-479b5fce2fdb{letter-spacing:0em;}.uuid-b11339f5-b3c4-4df5-98f2-8751bc0b936e{font-family:Futura-Bold, Futura;font-size:75px;}</style>
  </defs>
  <g
     id="uuid-a8323419-a906-4524-b7a3-4c87a5d06302">
    <g
       id="uuid-a5c0b25e-424b-4112-b6d7-882d6e5902f0">
      <g
         aria-label="ARGUS"
         id="text391"
         style="font-weight:bold;font-size:75px;font-family:Futura-Bold, Futura;-inkscape-font-specification:'Futura-Bold, Futura, Bold';fill:#00668a"
         class="uuid-b11339f5-b3c4-4df5-98f2-8751bc0b936e"
         inkscape:label="text391">
        <path
           d="M 43.091266,172.65906 H 21.045367 L 17.566364,182.62 H 3.394 L 23.645465,127.9447 H 40.454547 L 60.706012,182.62 H 46.533649 Z M 24.560992,162.51501 H 39.53902 l -7.470703,-21.75293 z"
           id="path562" />
        <path
           d="m 90.094738,152.18787 q 4.431153,0 6.33545,-1.64795 1.940917,-1.64795 1.940917,-5.41992 0,-3.73536 -1.940917,-5.34668 -1.904297,-1.61133 -6.33545,-1.61133 h -5.932617 v 14.02588 z m -5.932617,9.74121 V 182.62 H 70.063 v -54.6753 h 21.533203 q 10.803217,0 15.820307,3.62549 5.05371,3.62549 5.05371,11.4624 0,5.41992 -2.63671,8.89893 -2.6001,3.479 -7.87354,5.12695 2.89307,0.65918 5.16357,3.00293 2.30713,2.30713 4.65088,7.03125 l 7.65381,15.52735 h -15.01465 l -6.665033,-13.58643 q -2.01416,-4.10156 -4.101563,-5.60303 -2.050781,-1.50146 -5.493164,-1.50146 z"
           style="letter-spacing:0em"
           id="path564" />
        <path
           d="m 171.62746,178.55505 q -5.27343,2.56348 -10.9497,3.84522 -5.67627,1.28174 -11.71875,1.28174 -13.65967,0 -21.64307,-7.61719 -7.9834,-7.65381 -7.9834,-20.72754 0,-13.22021 8.12988,-20.80078 8.12989,-7.58057 22.26563,-7.58057 5.45654,0 10.43701,1.02539 5.01709,1.02539 9.44824,3.03955 v 11.31592 q -4.57763,-2.6001 -9.11865,-3.88183 -4.50439,-1.28174 -9.04541,-1.28174 -8.42285,0 -13.00049,4.72412 -4.54101,4.6875 -4.54101,13.43994 0,8.6792 4.39453,13.40332 4.39453,4.72412 12.48779,4.72412 2.19727,0 4.06494,-0.25635 1.9043,-0.29296 3.40576,-0.8789 v -10.62012 h -8.60595 v -9.44824 h 21.97265 z"
           id="path566" />
        <path
           d="m 184.043,127.9447 h 14.09913 v 32.77588 q 0,6.7749 2.19726,9.70459 2.23389,2.89307 7.25098,2.89307 5.05371,0 7.25097,-2.89307 2.23389,-2.92969 2.23389,-9.70459 V 127.9447 h 14.09912 v 32.77588 q 0,11.60889 -5.82275,17.28516 -5.82276,5.67627 -17.76123,5.67627 -11.90186,0 -17.72461,-5.67627 -5.82276,-5.67627 -5.82276,-17.28516 z"
           id="path568" />
        <path
           d="m 282.99278,129.66589 v 11.57227 q -4.50439,-2.01416 -8.78906,-3.03955 -4.28467,-1.02539 -8.09326,-1.02539 -5.05372,0 -7.47071,1.3916 -2.41699,1.3916 -2.41699,4.32129 0,2.19726 1.61133,3.44238 1.64795,1.2085 5.93262,2.0874 l 6.00586,1.2085 q 9.11865,1.83105 12.96386,5.56641 3.84522,3.73535 3.84522,10.62011 0,9.04541 -5.3833,13.47657 -5.34668,4.39453 -16.36963,4.39453 -5.2002,0 -10.43701,-0.98877 -5.23682,-0.98877 -10.47364,-2.92969 v -11.90186 q 5.23682,2.78321 10.10742,4.21143 4.90723,1.3916 9.44825,1.3916 4.61425,0 7.06787,-1.53808 2.45361,-1.53809 2.45361,-4.39454 0,-2.56347 -1.68457,-3.95507 -1.64795,-1.39161 -6.62842,-2.49024 l -5.45654,-1.20849 q -8.20312,-1.75782 -12.01172,-5.60303 -3.77197,-3.84522 -3.77197,-10.36377 0,-8.1665 5.27344,-12.56104 5.27343,-4.39453 15.16113,-4.39453 4.50439,0 9.26514,0.6958 4.76074,0.65918 9.85107,2.01416 z"
           id="path570" />
      </g>
      <g
         id="uuid-451afd43-a51d-42bd-82cc-033fbd978d12">
        <path
           class="uuid-9c17ef5b-ea7f-4822-888b-1aa3cb48c6d5"
           d="M20.84,87.81c2.52-11.78,8.06-22.65,14.74-32.58C53.11,29.27,80.88,10.71,111.51,3.63,129.64-.77,148.66-.66,167.12,1.28c5.99,.52,12.12,1.72,18.01,2.79,5.8,1.29,12.14,2.91,17.79,4.82,16.25,5.15,32.08,13.28,45.28,24.12,5,4.13,9.67,8.69,13.74,13.76,2.35,2.91,18.85,25.45,21.45,28.9,0,0-20.72-5.13-20.72-5.13-.13-.03-.29-.25-.64-.12l-.25,.03s-.13,.01-.13,.01c0,0-.16,.07-.16,.07-.84,.33-1.5,.81-2.25,1.36-3.39,2.75-6.41,5.85-10.27,8.87-6.06,4.84-13.4,8.55-20.97,9.99,0,0-1.36-2.22-1.36-2.22,5.72-3.67,10.76-8.24,14.84-13.67,4.44-5.48,7.24-12.52,13.22-16.76,0,0-.42,2.96-.42,2.96-1.74-1.85-3.89-3.63-5.91-5.26-10.6-8.29-23.18-14.25-35.8-18.83-4.51-1.51-11.06-3.58-15.63-4.64,0,0-3.95-1.02-3.95-1.02l-4.01-.79c-6.21-1.38-13.86-2.38-20.18-3.2-6.26-.49-14.16-1.22-20.42-1.23-38.44-2.35-76.01,12.11-103.96,38.43-6,5.54-11.61,11.55-16.63,18.02-1.66,2.15-3.3,4.38-4.73,6.61,0,0-2.24-1.33-2.24-1.33h0Z"
           id="path393" />
        <path
           class="uuid-9c17ef5b-ea7f-4822-888b-1aa3cb48c6d5"
           d="M145.48,29.37c21.13,0,38.26,17.13,38.26,38.26s-17.13,38.26-38.26,38.26-38.26-17.13-38.26-38.26,17.13-38.26,38.26-38.26"
           id="path395" />
      </g>
    </g>
  </g>
</svg>
