<svg width="80" height="57" viewBox="0 0 80 57" fill="none" xmlns="http://www.w3.org/2000/svg">
<path d="M24.9727 56.25L51.5 3.23474L78.0273 56.25H24.9727Z" stroke="white" stroke-width="2"/>
<path d="M2.97274 56.25L29.5 3.23474L56.0273 56.25H2.97274Z" stroke="white" stroke-width="2"/>
<path d="M45.9092 56H44.4443L42.5547 48.2363H37.3545L35.4941 56H34L39.1562 34.584H40.6357L45.9092 56ZM42.2178 46.7861L40.3281 38.8027C40.1133 37.7969 39.9619 36.9473 39.874 36.2539C39.7861 37.1426 39.6494 37.9922 39.4639 38.8027L37.6328 46.7861H42.2178ZM58.733 56H57.2682L55.3785 48.2363H50.1783L48.318 56H46.8238L51.9801 34.584H53.4596L58.733 56ZM55.0416 46.7861L53.152 38.8027C52.9371 37.7969 52.7857 36.9473 52.6979 36.2539C52.61 37.1426 52.4732 37.9922 52.2877 38.8027L50.4566 46.7861H55.0416ZM65.0236 54.916C66.1174 54.916 67.0158 54.501 67.7189 53.6709C68.4221 52.8408 68.7736 51.8105 68.7736 50.5801C68.7736 49.3496 68.5197 48.3877 68.0119 47.6943C67.5139 46.9912 66.5666 46.2979 65.1701 45.6143C64.0568 45.0479 63.2268 44.5059 62.6799 43.9883C62.1428 43.4707 61.7424 42.8701 61.4787 42.1865C61.215 41.4932 61.0832 40.6582 61.0832 39.6816C61.0832 39.623 61.0832 39.5645 61.0832 39.5059C61.0832 38.0312 61.5568 36.791 62.5041 35.7852C63.4611 34.7793 64.6232 34.2764 65.9904 34.2764C66.01 34.2764 66.0344 34.2764 66.0637 34.2764C67.5676 34.2764 68.8566 34.5693 69.9309 35.1553L69.3742 36.5322C68.2902 35.9756 67.2014 35.6973 66.1076 35.6973C65.0236 35.6973 64.1496 36.0586 63.4855 36.7812C62.8312 37.4941 62.5041 38.4512 62.5041 39.6523C62.5041 40.8438 62.7434 41.7666 63.2219 42.4209C63.7102 43.0752 64.6477 43.7637 66.0344 44.4863C67.4797 45.1895 68.5344 46.0146 69.1984 46.9619C69.8723 47.8994 70.2092 49.042 70.2092 50.3896C70.2092 52.1475 69.7209 53.5732 68.7443 54.667C67.758 55.751 66.5178 56.293 65.0236 56.293C63.3146 56.293 61.9426 56.0439 60.9074 55.5459V53.9932C61.4543 54.2861 62.0988 54.5156 62.841 54.6816C63.5832 54.8379 64.3107 54.916 65.0236 54.916Z" fill="#9D9D9D"/>
</svg>
