<?xml version="1.0" encoding="UTF-8" standalone="no"?>
<svg
   inkscape:version="1.2.2 (1:1.2.2+202212051550+b0a8486541)"
   sodipodi:docname="logo_white.svg"
   version="1.1"
   viewBox="0 0 296.96 208.42"
   id="uuid-081bd064-f7a4-4701-a438-ece56dfc20f3"
   xmlns:inkscape="http://www.inkscape.org/namespaces/inkscape"
   xmlns:sodipodi="http://sodipodi.sourceforge.net/DTD/sodipodi-0.dtd"
   xmlns="http://www.w3.org/2000/svg"
   xmlns:svg="http://www.w3.org/2000/svg"
   xmlns:rdf="http://www.w3.org/1999/02/22-rdf-syntax-ns#"
   xmlns:cc="http://creativecommons.org/ns#"
   xmlns:dc="http://purl.org/dc/elements/1.1/">
  <metadata
     id="metadata1606">
    <rdf:RDF>
      <cc:Work
         rdf:about="">
        <dc:format>image/svg+xml</dc:format>
        <dc:type
           rdf:resource="http://purl.org/dc/dcmitype/StillImage" />
      </cc:Work>
    </rdf:RDF>
  </metadata>
  <sodipodi:namedview
     inkscape:current-layer="uuid-a5c0b25e-424b-4112-b6d7-882d6e5902f0"
     inkscape:window-maximized="1"
     inkscape:window-y="27"
     inkscape:window-x="1920"
     inkscape:cy="118.96031"
     inkscape:cx="170.87375"
     inkscape:zoom="2.6101142"
     inkscape:pagecheckerboard="true"
     showgrid="false"
     id="namedview1604"
     inkscape:window-height="1326"
     inkscape:window-width="2560"
     inkscape:pageshadow="2"
     inkscape:pageopacity="0"
     guidetolerance="10"
     gridtolerance="10"
     objecttolerance="10"
     borderopacity="1"
     inkscape:document-rotation="0"
     bordercolor="#666666"
     pagecolor="#ffffff"
     inkscape:showpageshadow="2"
     inkscape:deskcolor="#d1d1d1" />
  <defs
     id="defs1586">
    <style
       id="style1584">.uuid-9c17ef5b-ea7f-4822-888b-1aa3cb48c6d5,.uuid-b11339f5-b3c4-4df5-98f2-8751bc0b936e{fill:#00668a;}.uuid-fb25c1fa-e217-44d9-93dd-479b5fce2fdb{letter-spacing:0em;}.uuid-b11339f5-b3c4-4df5-98f2-8751bc0b936e{font-family:Futura-Bold, Futura;font-size:75px;}</style>
  </defs>
  <g
     id="uuid-a8323419-a906-4524-b7a3-4c87a5d06302">
    <g
       id="uuid-a5c0b25e-424b-4112-b6d7-882d6e5902f0">
      <g
         aria-label="ARGUS"
         transform="translate(0 182.62)"
         id="text1594"
         style="font-weight:bold;font-size:75px;font-family:Futura-Bold, Futura;-inkscape-font-specification:'Futura-Bold, Futura, Bold';fill:#ffffff"
         class="uuid-b11339f5-b3c4-4df5-98f2-8751bc0b936e">
        <path
           d="M 43.091266,-9.9609375 H 21.045367 L 17.566363,0 H 3.394 L 23.645465,-54.675293 H 40.454547 L 60.706012,0 H 46.533648 Z M 24.560992,-20.10498 h 14.978027 l -7.470703,-21.75293 z"
           id="path793" />
        <path
           d="m 90.094738,-30.432129 q 4.431153,0 6.33545,-1.647949 1.940918,-1.647949 1.940918,-5.419922 0,-3.735352 -1.940918,-5.34668 -1.904297,-1.611328 -6.33545,-1.611328 h -5.932617 v 14.025879 z m -5.932617,9.741211 V 0 H 70.063 v -54.675293 h 21.533203 q 10.803227,0 15.820307,3.625488 5.05371,3.625489 5.05371,11.462403 0,5.419922 -2.63672,8.898925 -2.60009,3.479004 -7.87353,5.126954 2.89307,0.659179 5.16357,3.002929 2.30713,2.307129 4.65088,7.03125 L 119.42823,0 h -15.01465 l -6.665033,-13.586426 q -2.01416,-4.101562 -4.101562,-5.603027 -2.050782,-1.501465 -5.493165,-1.501465 z"
           style="letter-spacing:0em"
           id="path795" />
        <path
           d="m 171.62746,-4.0649414 q -5.27343,2.5634766 -10.9497,3.84521484 -5.67627,1.28173826 -11.71875,1.28173826 -13.65967,0 -21.64307,-7.6171875 -7.9834,-7.6538082 -7.9834,-20.7275392 0,-13.220215 8.12988,-20.800781 8.12989,-7.580566 22.26563,-7.580566 5.45654,0 10.43701,1.02539 5.01709,1.025391 9.44824,3.039551 v 11.315918 q -4.57763,-2.600098 -9.11865,-3.881836 -4.50439,-1.281738 -9.04541,-1.281738 -8.42285,0 -13.00049,4.724121 -4.54101,4.6875 -4.54101,13.439941 0,8.679199 4.39453,13.40332 4.39453,4.7241216 12.48779,4.7241216 2.19727,0 4.06494,-0.2563477 1.9043,-0.2929687 3.40576,-0.8789059 v -10.620118 h -8.60595 v -9.448242 h 21.97265 z"
           id="path797" />
        <path
           d="m 184.043,-54.675293 h 14.09913 v 32.775879 q 0,6.774902 2.19726,9.70459 2.23389,2.8930662 7.25098,2.8930662 5.05371,0 7.25097,-2.8930662 2.23389,-2.929688 2.23389,-9.70459 v -32.775879 h 14.09912 v 32.775879 q 0,11.608887 -5.82275,17.2851562 -5.82276,5.6762695 -17.76123,5.6762695 -11.90186,0 -17.72461,-5.6762695 Q 184.043,-10.290527 184.043,-21.899414 Z"
           id="path799" />
        <path
           d="m 282.99278,-52.954102 v 11.572266 q -4.5044,-2.01416 -8.78906,-3.039551 -4.28467,-1.02539 -8.09326,-1.02539 -5.05372,0 -7.47071,1.391601 -2.41699,1.391602 -2.41699,4.321289 0,2.197266 1.61133,3.442383 1.64795,1.208496 5.93262,2.087402 l 6.00585,1.208497 q 9.11866,1.831054 12.96387,5.566406 3.84522,3.735351 3.84522,10.620117 0,9.0454101 -5.3833,13.4765625 -5.34668,4.3945312 -16.36963,4.3945312 -5.2002,0 -10.43701,-0.98876951 -5.23682,-0.98876953 -10.47364,-2.92968749 V -14.758301 q 5.23682,2.783203 10.10742,4.211426 4.90723,1.3916016 9.44825,1.3916016 4.61425,0 7.06787,-1.5380856 2.45361,-1.538086 2.45361,-4.394532 0,-2.563476 -1.68457,-3.955078 -1.64795,-1.391601 -6.62842,-2.490234 l -5.45654,-1.208496 q -8.20313,-1.757813 -12.01172,-5.603028 -3.77197,-3.845214 -3.77197,-10.363769 0,-8.166504 5.27344,-12.561035 5.27343,-4.394531 15.16113,-4.394531 4.50439,0 9.26514,0.6958 4.76074,0.65918 9.85107,2.01416 z"
           id="path801" />
      </g>
      <g
         id="uuid-451afd43-a51d-42bd-82cc-033fbd978d12">
        <path
           style="fill:#ffffff;fill-opacity:1"
           id="path1596"
           d="M20.84,87.81c2.52-11.78,8.06-22.65,14.74-32.58C53.11,29.27,80.88,10.71,111.51,3.63,129.64-.77,148.66-.66,167.12,1.28c5.99,.52,12.12,1.72,18.01,2.79,5.8,1.29,12.14,2.91,17.79,4.82,16.25,5.15,32.08,13.28,45.28,24.12,5,4.13,9.67,8.69,13.74,13.76,2.35,2.91,18.85,25.45,21.45,28.9,0,0-20.72-5.13-20.72-5.13-.13-.03-.29-.25-.64-.12l-.25,.03s-.13,.01-.13,.01c0,0-.16,.07-.16,.07-.84,.33-1.5,.81-2.25,1.36-3.39,2.75-6.41,5.85-10.27,8.87-6.06,4.84-13.4,8.55-20.97,9.99,0,0-1.36-2.22-1.36-2.22,5.72-3.67,10.76-8.24,14.84-13.67,4.44-5.48,7.24-12.52,13.22-16.76,0,0-.42,2.96-.42,2.96-1.74-1.85-3.89-3.63-5.91-5.26-10.6-8.29-23.18-14.25-35.8-18.83-4.51-1.51-11.06-3.58-15.63-4.64,0,0-3.95-1.02-3.95-1.02l-4.01-.79c-6.21-1.38-13.86-2.38-20.18-3.2-6.26-.49-14.16-1.22-20.42-1.23-38.44-2.35-76.01,12.11-103.96,38.43-6,5.54-11.61,11.55-16.63,18.02-1.66,2.15-3.3,4.38-4.73,6.61,0,0-2.24-1.33-2.24-1.33h0Z"
           class="uuid-9c17ef5b-ea7f-4822-888b-1aa3cb48c6d5" />
        <path
           style="fill:#ffffff;fill-opacity:1"
           id="path1598"
           d="M145.48,29.37c21.13,0,38.26,17.13,38.26,38.26s-17.13,38.26-38.26,38.26-38.26-17.13-38.26-38.26,17.13-38.26,38.26-38.26"
           class="uuid-9c17ef5b-ea7f-4822-888b-1aa3cb48c6d5" />
      </g>
    </g>
  </g>
</svg>
