<svg width="80" height="57" viewBox="0 0 80 57" fill="none" xmlns="http://www.w3.org/2000/svg">
<path d="M24.9727 56.25L51.5 3.23474L78.0273 56.25H24.9727Z" stroke="white" stroke-width="2"/>
<path d="M2.97274 56.25L29.5 3.23474L56.0273 56.25H2.97274Z" stroke="white" stroke-width="2"/>
<path d="M39.2002 35.5693H41.9688C42.5645 37.9814 44.3271 45.125 47.2568 57H44.957L43.2871 50.0273H37.9551L36.3145 57H34C36.8711 45.1641 38.6045 38.0205 39.2002 35.5693ZM41.4854 42.2344L41.0166 40.1396C40.8311 39.3096 40.6846 38.4746 40.5771 37.6348C40.4209 38.8555 40.2305 39.959 40.0059 40.9453C39.791 41.9316 39.6299 42.6641 39.5225 43.1426C39.415 43.6113 39.2295 44.4023 38.9658 45.5156C38.7021 46.6289 38.5166 47.4199 38.4092 47.8887H42.8184L41.4854 42.2344ZM53.3717 35.5693H56.1402C56.7359 37.9814 58.4986 45.125 61.4283 57H59.1285L57.4586 50.0273H52.1266L50.4859 57H48.1715C51.0426 45.1641 52.776 38.0205 53.3717 35.5693ZM55.6568 42.2344L55.1881 40.1396C55.0025 39.3096 54.8561 38.4746 54.7486 37.6348C54.5924 38.8555 54.402 39.959 54.1773 40.9453C53.9625 41.9316 53.8014 42.6641 53.6939 43.1426C53.5865 43.6113 53.401 44.4023 53.1373 45.5156C52.8736 46.6289 52.6881 47.4199 52.5807 47.8887H56.9898L55.6568 42.2344ZM67.7189 55.2275C68.6955 55.2275 69.4816 54.876 70.0773 54.1729C70.6828 53.4697 70.9855 52.6152 70.9855 51.6094C70.9855 50.5938 70.717 49.749 70.1799 49.0752C69.6428 48.3916 68.8859 47.752 67.9094 47.1562C66.3566 46.2871 65.2629 45.4033 64.6281 44.5049C64.0031 43.6064 63.6906 42.3662 63.6906 40.7842C63.6906 39.2021 64.174 37.8887 65.1408 36.8438C66.1174 35.7988 67.3771 35.2764 68.9201 35.2764C70.4631 35.2764 71.8352 35.6279 73.0363 36.3311C72.8508 36.7705 72.5822 37.4297 72.2307 38.3086C71.0979 37.7031 70.048 37.4004 69.0812 37.4004C68.1242 37.4004 67.3576 37.7227 66.7814 38.3672C66.215 39.002 65.9318 39.8271 65.9318 40.8428C65.9318 41.8584 66.1418 42.6689 66.5617 43.2744C66.9816 43.8701 67.8654 44.5439 69.2131 45.2959C70.6389 46.0674 71.6691 46.9268 72.3039 47.874C72.9387 48.8213 73.2561 49.9639 73.2561 51.3018C73.2561 53.1279 72.758 54.583 71.7619 55.667C70.7756 56.751 69.4426 57.293 67.7629 57.293C66.0832 57.293 64.6672 57.0098 63.5148 56.4434V54.0996C64.1008 54.4414 64.7746 54.7148 65.5363 54.9199C66.298 55.125 67.0256 55.2275 67.7189 55.2275Z" fill="white"/>
</svg>
