<svg width="80" height="57" viewBox="0 0 80 57" fill="none" xmlns="http://www.w3.org/2000/svg">
<path d="M24.9727 56.25L51.5 3.23474L78.0273 56.25H24.9727Z" stroke="#DBDBDB" stroke-width="2"/>
<path d="M2.97274 56.25L29.5 3.23474L56.0273 56.25H2.97274Z" stroke="#DBDBDB" stroke-width="2"/>
<path d="M46.9092 56H45.4443L43.5547 48.2363H38.3545L36.4941 56H35L40.1562 34.584H41.6357L46.9092 56ZM43.2178 46.7861L41.3281 38.8027C41.1133 37.7969 40.9619 36.9473 40.874 36.2539C40.7861 37.1426 40.6494 37.9922 40.4639 38.8027L38.6328 46.7861H43.2178ZM59.733 56H58.2682L56.3785 48.2363H51.1783L49.318 56H47.8238L52.9801 34.584H54.4596L59.733 56ZM56.0416 46.7861L54.152 38.8027C53.9371 37.7969 53.7857 36.9473 53.6979 36.2539C53.61 37.1426 53.4732 37.9922 53.2877 38.8027L51.4566 46.7861H56.0416ZM64.8236 54.916C65.9174 54.916 66.8158 54.501 67.5189 53.6709C68.2221 52.8408 68.5736 51.8105 68.5736 50.5801C68.5736 49.3496 68.3197 48.3877 67.8119 47.6943C67.3139 46.9912 66.3666 46.2979 64.9701 45.6143C63.8568 45.0479 63.0268 44.5059 62.4799 43.9883C61.9428 43.4707 61.5424 42.8701 61.2787 42.1865C61.015 41.4932 60.8832 40.6582 60.8832 39.6816C60.8832 39.623 60.8832 39.5645 60.8832 39.5059C60.8832 38.0312 61.3568 36.791 62.3041 35.7852C63.2611 34.7793 64.4232 34.2764 65.7904 34.2764C65.81 34.2764 65.8344 34.2764 65.8637 34.2764C67.3676 34.2764 68.6566 34.5693 69.7309 35.1553L69.1742 36.5322C68.0902 35.9756 67.0014 35.6973 65.9076 35.6973C64.8236 35.6973 63.9496 36.0586 63.2855 36.7812C62.6313 37.4941 62.3041 38.4512 62.3041 39.6523C62.3041 40.8438 62.5434 41.7666 63.0219 42.4209C63.5102 43.0752 64.4477 43.7637 65.8344 44.4863C67.2797 45.1895 68.3344 46.0146 68.9984 46.9619C69.6723 47.8994 70.0092 49.042 70.0092 50.3896C70.0092 52.1475 69.5209 53.5732 68.5443 54.667C67.558 55.751 66.3178 56.293 64.8236 56.293C63.1146 56.293 61.7426 56.0439 60.7074 55.5459V53.9932C61.2543 54.2861 61.8988 54.5156 62.641 54.6816C63.3832 54.8379 64.1107 54.916 64.8236 54.916Z" fill="#434343"/>
</svg>
