<?xml version="1.0" encoding="UTF-8" standalone="no"?>
<svg
   xmlns:dc="http://purl.org/dc/elements/1.1/"
   xmlns:cc="http://creativecommons.org/ns#"
   xmlns:rdf="http://www.w3.org/1999/02/22-rdf-syntax-ns#"
   xmlns:svg="http://www.w3.org/2000/svg"
   xmlns="http://www.w3.org/2000/svg"
   xmlns:sodipodi="http://sodipodi.sourceforge.net/DTD/sodipodi-0.dtd"
   xmlns:inkscape="http://www.inkscape.org/namespaces/inkscape"
   id="uuid-081bd064-f7a4-4701-a438-ece56dfc20f3"
   viewBox="0 0 296.96 208.42"
   version="1.1"
   sodipodi:docname="logo_white.svg"
   inkscape:version="1.0beta1 (32d4812, 2019-09-19)">
  <metadata
     id="metadata1606">
    <rdf:RDF>
      <cc:Work
         rdf:about="">
        <dc:format>image/svg+xml</dc:format>
        <dc:type
           rdf:resource="http://purl.org/dc/dcmitype/StillImage" />
        <dc:title></dc:title>
      </cc:Work>
    </rdf:RDF>
  </metadata>
  <sodipodi:namedview
     pagecolor="#ffffff"
     bordercolor="#666666"
     inkscape:document-rotation="0"
     borderopacity="1"
     objecttolerance="10"
     gridtolerance="10"
     guidetolerance="10"
     inkscape:pageopacity="0"
     inkscape:pageshadow="2"
     inkscape:window-width="1792"
     inkscape:window-height="889"
     id="namedview1604"
     showgrid="false"
     inkscape:pagecheckerboard="true"
     inkscape:zoom="1.3050571"
     inkscape:cx="39.672497"
     inkscape:cy="104.21"
     inkscape:window-x="0"
     inkscape:window-y="25"
     inkscape:window-maximized="0"
     inkscape:current-layer="text1594" />
  <defs
     id="defs1586">
    <style
       id="style1584">.uuid-9c17ef5b-ea7f-4822-888b-1aa3cb48c6d5,.uuid-b11339f5-b3c4-4df5-98f2-8751bc0b936e{fill:#00668a;}.uuid-fb25c1fa-e217-44d9-93dd-479b5fce2fdb{letter-spacing:0em;}.uuid-b11339f5-b3c4-4df5-98f2-8751bc0b936e{font-family:Futura-Bold, Futura;font-size:75px;}</style>
  </defs>
  <g
     id="uuid-a8323419-a906-4524-b7a3-4c87a5d06302">
    <g
       id="uuid-a5c0b25e-424b-4112-b6d7-882d6e5902f0">
      <g
         class="uuid-b11339f5-b3c4-4df5-98f2-8751bc0b936e"
         style="font-size:75px;font-family:Futura-Bold, Futura;fill:#ffffff;fill-opacity:1"
         id="text1594"
         transform="translate(0 182.62)"
         aria-label="ARGUS">
        <path
           id="path2007"
           style="fill:#ffffff;fill-opacity:1"
           d="M 39.990234,-13.73291 H 15.783691 L 9.4848633,0 H 0.29296875 L 28.271484,-60.095215 55.26123,0 H 45.922852 Z M 36.51123,-21.75293 28.125,-40.979004 19.335937,-21.75293 Z" />
        <path
           id="path2009"
           style="letter-spacing:0em;fill:#ffffff;fill-opacity:1"
           d="M 86.077736,-24.09668 103.58262,0 H 93.145607 L 76.995705,-23.144531 H 75.457619 V 0 h -8.532715 v -56.542969 h 9.997558 q 11.206055,0 16.186524,4.211426 5.493164,4.6875 5.493164,12.37793 0,6.005859 -3.442383,10.327148 -3.442383,4.321289 -9.082031,5.529785 z m -10.620117,-6.481933 h 2.709961 q 12.121582,0 12.121582,-9.265137 0,-8.679199 -11.791993,-8.679199 h -3.03955 z" />
        <path
           id="path2011"
           style="fill:#ffffff;fill-opacity:1"
           d="m 148.42205,-29.443359 h 23.36426 v 1.867675 q 0,6.372071 -1.50147,11.279297 -1.46484,4.541016 -4.94384,8.496094 -7.87354,8.8623047 -20.03174,8.8623047 -11.86524,0 -20.32471,-8.5693359 -8.45947,-8.6059568 -8.45947,-20.6542968 0,-12.304688 8.60595,-20.874024 8.60596,-8.605957 20.94727,-8.605957 6.62842,0 12.37793,2.709961 5.49316,2.709961 10.80322,8.789063 l -6.0791,5.822754 q -6.95801,-9.265137 -16.95557,-9.265137 -8.97216,0 -15.05126,6.188965 -6.07911,6.079101 -6.07911,15.234375 0,9.448242 6.77491,15.563965 6.33545,5.6762693 13.73291,5.6762693 6.29882,0 11.31591,-4.2480473 5.01709,-4.284668 5.60303,-10.253906 h -14.09912 z" />
        <path
           id="path2013"
           style="fill:#ffffff;fill-opacity:1"
           d="m 191.01238,-56.542969 v 34.057617 q 0,7.287598 2.38037,10.656739 3.55225,4.8706052 9.99756,4.8706052 6.48194,0 10.03418,-4.8706052 2.38037,-3.259278 2.38037,-10.656739 v -34.057617 h 8.53272 v 36.401367 q 0,8.935547 -5.56641,14.7216801 -6.26221,6.4453125 -15.38086,6.4453125 -9.11865,0 -15.34424,-6.4453125 -5.5664,-5.7861331 -5.5664,-14.7216801 v -36.401367 z" />
        <path
           id="path2015"
           style="fill:#ffffff;fill-opacity:1"
           d="m 269.82098,-48.120117 -6.92139,4.101562 q -1.94092,-3.36914 -3.69873,-4.394531 -1.83106,-1.171875 -4.72412,-1.171875 -3.55225,0 -5.896,2.01416 -2.34375,1.977539 -2.34375,4.980469 0,4.138184 6.15235,6.665039 l 5.63964,2.307129 q 6.88477,2.783203 10.0708,6.811523 3.18604,3.9917 3.18604,9.814454 0,7.8002925 -5.2002,12.8906245 -5.23681,5.1269531 -13.00048,5.1269531 -7.36084,0 -12.15821,-4.3579101 -4.72412,-4.3579102 -5.89599,-12.2680665 l 8.64258,-1.904297 q 0.58593,4.980469 2.05078,6.884766 2.63672,3.6621092 7.69043,3.6621092 3.9917,0 6.62841,-2.6733399 2.63672,-2.6733403 2.63672,-6.7749023 0,-1.647949 -0.47607,-3.00293 -0.43945,-1.391601 -1.42822,-2.526855 -0.95215,-1.171875 -2.49024,-2.160645 -1.53808,-1.02539 -3.66211,-1.940918 l -5.45654,-2.270507 q -11.60889,-4.907227 -11.60889,-14.355469 0,-6.372071 4.87061,-10.656738 4.8706,-4.32129 12.12158,-4.32129 9.77783,0 15.271,9.521485 z" />
      </g>
      <g
         id="uuid-451afd43-a51d-42bd-82cc-033fbd978d12">
        <path
           class="uuid-9c17ef5b-ea7f-4822-888b-1aa3cb48c6d5"
           d="M20.84,87.81c2.52-11.78,8.06-22.65,14.74-32.58C53.11,29.27,80.88,10.71,111.51,3.63,129.64-.77,148.66-.66,167.12,1.28c5.99,.52,12.12,1.72,18.01,2.79,5.8,1.29,12.14,2.91,17.79,4.82,16.25,5.15,32.08,13.28,45.28,24.12,5,4.13,9.67,8.69,13.74,13.76,2.35,2.91,18.85,25.45,21.45,28.9,0,0-20.72-5.13-20.72-5.13-.13-.03-.29-.25-.64-.12l-.25,.03s-.13,.01-.13,.01c0,0-.16,.07-.16,.07-.84,.33-1.5,.81-2.25,1.36-3.39,2.75-6.41,5.85-10.27,8.87-6.06,4.84-13.4,8.55-20.97,9.99,0,0-1.36-2.22-1.36-2.22,5.72-3.67,10.76-8.24,14.84-13.67,4.44-5.48,7.24-12.52,13.22-16.76,0,0-.42,2.96-.42,2.96-1.74-1.85-3.89-3.63-5.91-5.26-10.6-8.29-23.18-14.25-35.8-18.83-4.51-1.51-11.06-3.58-15.63-4.64,0,0-3.95-1.02-3.95-1.02l-4.01-.79c-6.21-1.38-13.86-2.38-20.18-3.2-6.26-.49-14.16-1.22-20.42-1.23-38.44-2.35-76.01,12.11-103.96,38.43-6,5.54-11.61,11.55-16.63,18.02-1.66,2.15-3.3,4.38-4.73,6.61,0,0-2.24-1.33-2.24-1.33h0Z"
           id="path1596"
           style="fill:#ffffff;fill-opacity:1" />
        <path
           class="uuid-9c17ef5b-ea7f-4822-888b-1aa3cb48c6d5"
           d="M145.48,29.37c21.13,0,38.26,17.13,38.26,38.26s-17.13,38.26-38.26,38.26-38.26-17.13-38.26-38.26,17.13-38.26,38.26-38.26"
           id="path1598"
           style="fill:#ffffff;fill-opacity:1" />
      </g>
    </g>
  </g>
  <text
     id="text2005"
     y="173.1725"
     x="42.143749"
     style="font-size:40px;line-height:1.25;font-family:sans-serif;letter-spacing:0px"
     xml:space="preserve"><tspan
       y="173.1725"
       x="42.143749"
       id="tspan2003"
       sodipodi:role="line"></tspan></text>
</svg>
