<svg width="81" height="59" viewBox="0 0 81 59" fill="none" xmlns="http://www.w3.org/2000/svg">
<path d="M50.5 0L78.6458 58.5H22.3542L50.5 0Z" fill="white" fill-opacity="0.8"/>
<path d="M28.5 0L56.6458 58.5H0.354174L28.5 0Z" fill="white" fill-opacity="0.8"/>
<g style="mix-blend-mode:luminosity">
<path d="M18.9395 55H17.9629L16.7031 49.8242H13.2363L11.9961 55H11L14.4375 40.7227H15.4238L18.9395 55ZM16.4785 48.8574L15.2188 43.5352C15.0755 42.8646 14.9746 42.2982 14.916 41.8359C14.8574 42.4284 14.7663 42.9948 14.6426 43.5352L13.4219 48.8574H16.4785ZM43.6887 55H42.7121L41.4523 49.8242H37.9855L36.7453 55H35.7492L39.1867 40.7227H40.173L43.6887 55ZM41.2277 48.8574L39.968 43.5352C39.8247 42.8646 39.7238 42.2982 39.6652 41.8359C39.6066 42.4284 39.5155 42.9948 39.3918 43.5352L38.1711 48.8574H41.2277ZM64.0824 54.2773C64.8116 54.2773 65.4105 54.0007 65.8793 53.4473C66.348 52.8939 66.5824 52.207 66.5824 51.3867C66.5824 50.5664 66.4131 49.9251 66.0746 49.4629C65.7426 48.9941 65.1111 48.5319 64.1801 48.0762C63.4379 47.6986 62.8845 47.3372 62.5199 46.9922C62.1618 46.6471 61.8949 46.2467 61.7191 45.791C61.5434 45.3288 61.4555 44.7721 61.4555 44.1211C61.4555 44.082 61.4555 44.043 61.4555 44.0039C61.4555 43.0208 61.7712 42.194 62.4027 41.5234C63.0408 40.8529 63.8155 40.5176 64.727 40.5176C64.74 40.5176 64.7562 40.5176 64.7758 40.5176C65.7784 40.5176 66.6378 40.7129 67.3539 41.1035L66.9828 42.0215C66.2602 41.6504 65.5342 41.4648 64.8051 41.4648C64.0824 41.4648 63.4997 41.7057 63.057 42.1875C62.6208 42.6628 62.4027 43.3008 62.4027 44.1016C62.4027 44.8958 62.5622 45.5111 62.8812 45.9473C63.2068 46.3835 63.8318 46.8424 64.7562 47.3242C65.7198 47.793 66.4229 48.3431 66.8656 48.9746C67.3148 49.5996 67.5395 50.3613 67.5395 51.2598C67.5395 52.4316 67.2139 53.3822 66.5629 54.1113C65.9053 54.834 65.0785 55.1953 64.0824 55.1953C62.9431 55.1953 62.0284 55.0293 61.3383 54.6973V53.6621C61.7029 53.8574 62.1326 54.0104 62.6273 54.1211C63.1221 54.2253 63.6072 54.2773 64.0824 54.2773Z" fill="#D1D1D1"/>
</g>
</svg>
